<svg xmlns="http://www.w3.org/2000/svg" width="20" height="20" viewBox="0 0 24 24" fill="none"><path d="M12 15.5A3.5 3.5 0 1 0 12 8.5a3.5 3.5 0 0 0 0 7z" stroke="#fff" stroke-width="1.5" stroke-linecap="round" stroke-linejoin="round"/><path d="M19.4 15a1.65 1.65 0 0 0 .33 1.82l.06.06a2 2 0 1 1-2.83 2.83l-.06-.06a1.65 1.65 0 0 0-1.82-.33 1.65 1.65 0 0 0-1 1.51V21a2 2 0 1 1-4 0v-.09a1.65 1.65 0 0 0-1-1.51 1.65 1.65 0 0 0-1.82.33l-.06.06A2 2 0 1 1 2.3 16.88l.06-.06a1.65 1.65 0 0 0 .33-1.82 1.65 1.65 0 0 0-1.51-1H3a2 2 0 1 1 0-4h.09a1.65 1.65 0 0 0 1.51-1 1.65 1.65 0 0 0-.33-1.82L4.3 3.7A2 2 0 1 1 7.12.87l.06.06a1.65 1.65 0 0 0 1.82.33H9a1.65 1.65 0 0 0 1-1.51V.5A2 2 0 1 1 14 0v.09a1.65 1.65 0 0 0 1 1.51h.06a1.65 1.65 0 0 0 1.82-.33l.06-.06A2 2 0 1 1 21.7 7.12l-.06.06a1.65 1.65 0 0 0-.33 1.82V9c0 .36.13.69.36.95z" stroke="#fff" stroke-width="1" fill="none" stroke-linecap="round" stroke-linejoin="round"/></svg>